<svg width="80" height="70" viewBox="0 0 80 70" fill="none" xmlns="http://www.w3.org/2000/svg">
<g clip-path="url(#clip0_42_380)">
<path d="M63.1646 33.4819C63.1646 29.7719 61.6396 27.2038 60.3346 25.2044L59.9346 24.6356C58.3496 22.4044 56.9646 20.4444 56.9646 18.1606C56.9646 15.4044 59.3546 12.8319 62.7246 12.8319C62.8246 12.8319 62.9196 12.8406 63.0146 12.845L63.1696 12.8581C56.8504 7.77937 48.5799 4.96526 39.9996 4.97439C34.3129 4.97183 28.7149 6.20736 23.71 8.56963C18.705 10.9319 14.4504 14.3467 11.3296 18.5063C12.1296 18.5281 12.8946 18.5456 13.5396 18.5456C17.1246 18.5456 22.6796 18.165 22.6796 18.165C24.5296 18.0688 24.7496 20.4444 22.8996 20.6369C22.8996 20.6369 21.0446 20.8294 18.9746 20.9213L31.4746 53.445L38.9746 33.7313L33.6246 20.9169C31.7796 20.8206 30.0296 20.6325 30.0296 20.6325C28.1796 20.5363 28.3996 18.06 30.2446 18.1563C30.2446 18.1563 35.9146 18.5369 39.2846 18.5369C42.8746 18.5369 48.4346 18.1563 48.4346 18.1563C50.2846 18.06 50.4996 20.44 48.6496 20.6325C48.6496 20.6325 46.7896 20.8206 44.7246 20.9169L57.1246 53.1913L60.5446 43.1856L60.8146 42.4288C62.1646 38.6663 63.1596 35.8881 63.1596 33.4775L63.1646 33.4819ZM5.6846 35C5.68426 40.6383 7.49799 46.1627 10.9182 50.9412C14.3385 55.7196 19.2271 59.559 25.0246 62.02L8.6496 22.7763C6.68875 26.6228 5.67837 30.7882 5.6846 35Z" fill="#333333"/>
<path d="M30.3047 63.8005L40.6047 37.6249L51.1497 62.9124C51.2197 63.0568 51.2997 63.1924 51.3947 63.3236C44.5969 65.4191 37.2171 65.586 30.3047 63.8005ZM70.1047 20.593C70.2547 21.5511 70.3397 22.5749 70.3397 23.6818C70.3397 26.7268 69.6897 30.1524 67.7297 34.4355L57.2497 60.948C64.9832 57.0165 70.6558 50.5972 73.0581 43.0587C75.4604 35.5202 74.4024 27.4588 70.1097 20.593H70.1047Z" fill="#333333"/>
<path fill-rule="evenodd" clip-rule="evenodd" d="M0 35C0 15.7019 17.945 0 40 0C62.05 0 80 15.7019 80 35C80 54.2981 62.05 70 40 70C17.945 70 0 54.2981 0 35ZM1.835 35C1.835 53.4144 18.955 68.3944 40 68.3944C61.04 68.3944 78.16 53.4144 78.16 35C78.16 16.5812 61.04 1.60563 40 1.60563C18.95 1.60563 1.835 16.5812 1.835 35Z" fill="#333333"/>
</g>
<defs>
<clipPath id="clip0_42_380">
<rect width="80" height="70" fill="white"/>
</clipPath>
</defs>
</svg>
