<svg width="80" height="70" viewBox="0 0 80 70" fill="none" xmlns="http://www.w3.org/2000/svg">
<g clip-path="url(#clip0_42_385)">
<path d="M67.1161 0.0289423V11.1078H61.5884V69.3942H58.8244V11.1085H53.1816V0.0289423H67.1161ZM67.7375 62.7866C67.9322 62.7866 68.1025 63.0882 68.2467 63.6926C68.393 64.2963 68.4658 65.0199 68.4678 65.8626C68.4675 66.4156 68.4318 66.9574 68.3647 67.4288C68.2989 67.8941 68.2067 68.2798 68.0969 68.5495C67.9883 68.829 67.864 68.9748 67.7375 68.9709C67.535 68.9709 67.3628 68.6687 67.2188 68.0649C67.0745 67.4605 67.0031 66.7288 67.005 65.8626C67.0033 65.0199 67.0745 64.2963 67.2188 63.6926C67.3628 63.0882 67.535 62.7866 67.7375 62.7866ZM12.9556 69.3942L2.76406 14.8265V69.366H0V0H3.45484L16.3308 68.8753L16.3309 11.1085L16.3298 0.0289423H30.2642V11.1078H19.0948V28.9309H28.0773V40.0104H19.0948V58.3154H30.2644V69.3942H12.9556ZM39.1227 39.9047L40.9341 49.6058L37.2223 69.4763H33.595L39.1227 39.9047ZM37.2223 0.0578846L41.8989 25.0762L46.5608 0.134615L50.178 0.111058L43.7098 34.7644L50.1884 69.4232H46.5608L33.6053 0.0578846H37.2223ZM72.4548 39.7492H73.6795V60.0762C73.6778 61.9439 73.5839 63.5412 73.4006 64.8853C73.2152 66.2281 72.9584 67.2538 72.6291 67.9774C72.3012 68.6922 71.9173 69.0584 71.4809 69.0584C71.082 69.0584 70.7245 68.7487 70.4061 68.1443C70.0877 67.5399 69.835 66.6339 69.6495 65.4412C69.462 64.2492 69.3703 62.7624 69.3703 60.9821H70.5972C70.5991 61.7609 70.6402 62.436 70.7188 63.0013C70.7962 63.5593 70.9093 64.009 71.0447 64.2963C71.185 64.5992 71.3463 64.75 71.5277 64.75C71.7245 64.75 71.893 64.575 72.0297 64.2169C72.1663 63.8669 72.2712 63.3426 72.3444 62.6433C72.4155 61.9513 72.453 61.0932 72.4548 60.0755V39.7486V39.7492ZM78.7189 47.6983C78.6892 46.4665 78.558 45.504 78.3295 44.8209C78.0991 44.1289 77.8014 43.7877 77.4361 43.7877C77.1798 43.7877 76.9587 43.9546 76.7752 44.2804C76.5917 44.6142 76.4494 45.0591 76.3519 45.6238C76.2547 46.1879 76.2059 46.832 76.202 47.5556C76.202 48.1593 76.2358 48.6843 76.3013 49.1212C76.3692 49.5791 76.4609 49.963 76.5691 50.2425C76.6866 50.5609 76.8124 50.8195 76.9437 51.0132C77.0822 51.2198 77.2209 51.3948 77.3594 51.5382L77.998 52.2139C78.2547 52.4684 78.5038 52.8096 78.7416 53.2471C78.9792 53.6765 79.1947 54.2251 79.3838 54.8847C79.573 55.5443 79.7228 56.3392 79.8333 57.2694C79.9437 58.1996 80 59.2887 80 60.5446C80 62.2374 79.8989 63.7242 79.6947 65.0118C79.4906 66.292 79.1966 67.2936 78.8108 68.0171C78.4269 68.7326 77.9623 69.0981 77.4156 69.0981C76.8875 69.0981 76.4269 68.7481 76.0391 68.0488C75.6497 67.3575 75.3462 66.3391 75.127 65.0038C74.908 63.6684 74.79 62.0388 74.7731 60.1233H75.9869C76.0036 61.1248 76.0786 61.9594 76.2059 62.6352C76.335 63.3029 76.5036 63.7956 76.7097 64.1294C76.9175 64.4559 77.1497 64.6228 77.4062 64.6228C77.6741 64.6228 77.91 64.4478 78.1141 64.1059C78.3164 63.7639 78.4755 63.2874 78.5898 62.6668C78.7059 62.0543 78.7641 61.3314 78.7659 60.5049C78.7641 59.7497 78.7114 59.1217 78.6103 58.6284C78.5073 58.1357 78.365 57.7224 78.1833 57.3886C78 57.0547 77.7864 56.7525 77.543 56.4907L76.7677 55.648C76.2077 55.0355 75.7639 54.106 75.4398 52.8574C75.1141 51.6095 74.953 49.9564 74.953 47.8813C74.953 46.1805 75.0616 44.6856 75.2808 43.4054C75.498 42.1265 75.7958 41.1324 76.1722 40.425C76.5503 39.7095 76.9775 39.3595 77.453 39.3595C77.9362 39.3595 78.3594 39.7095 78.7247 40.425C79.0897 41.1324 79.3764 42.1178 79.5841 43.3738C79.792 44.6304 79.9008 46.0687 79.9064 47.6983H78.7189Z" fill="black"/>
</g>
<defs>
<clipPath id="clip0_42_385">
<rect width="80" height="70" fill="white"/>
</clipPath>
</defs>
</svg>
