<svg width="50" height="70" viewBox="0 0 50 70" fill="none" xmlns="http://www.w3.org/2000/svg">
<g clip-path="url(#clip0_42_363)">
<path d="M12.5 70.0001C19.4 70.0001 25 64.7734 25 58.3334V46.6667H12.5C5.6 46.6667 0 51.8934 0 58.3334C0 64.7734 5.6 70.0001 12.5 70.0001Z" fill="#0ACF83"/>
<path d="M0 34.9999C0 28.5599 5.6 23.3333 12.5 23.3333H25V46.6666H12.5C5.6 46.6666 0 41.4399 0 34.9999Z" fill="#A259FF"/>
<path d="M0 11.6667C0 5.22667 5.6 0 12.5 0H25V23.3333H12.5C5.6 23.3333 0 18.1067 0 11.6667Z" fill="#F24E1E"/>
<path d="M25 0H37.5C44.4 0 50 5.22667 50 11.6667C50 18.1067 44.4 23.3333 37.5 23.3333H25V0Z" fill="#FF7262"/>
<path d="M50 34.9999C50 41.4399 44.4 46.6666 37.5 46.6666C30.6 46.6666 25 41.4399 25 34.9999C25 28.5599 30.6 23.3333 37.5 23.3333C44.4 23.3333 50 28.5599 50 34.9999Z" fill="#1ABCFE"/>
</g>
<defs>
<clipPath id="clip0_42_363">
<rect width="50" height="70" fill="white"/>
</clipPath>
</defs>
</svg>
