<svg width="80" height="70" viewBox="0 0 80 70" fill="none" xmlns="http://www.w3.org/2000/svg">
<path d="M5 4.375H75V65.625H5V4.375Z" fill="#F5DE19"/>
<path d="M52.0222 52.2265C52.6186 53.2866 53.5452 54.1776 54.6953 54.7968C55.8453 55.4161 57.1719 55.7383 58.5222 55.7265C61.2472 55.7265 62.9897 54.5343 62.9897 52.8828C62.9897 50.914 61.1997 50.2096 58.1997 49.0612L56.5547 48.4443C51.8047 46.6746 48.6547 44.4587 48.6547 39.7731C48.6547 35.4571 52.4047 32.1693 58.2872 32.1693C60.1915 32.049 62.0941 32.4219 63.7577 33.2416C65.4213 34.0612 66.7723 35.2913 67.6422 36.7784L62.4997 39.6549C62.1647 38.9176 61.5815 38.2867 60.8274 37.8461C60.0733 37.4054 59.1839 37.1757 58.2772 37.1874C57.8816 37.1528 57.4821 37.1906 57.1041 37.2985C56.7262 37.4064 56.378 37.5821 56.0819 37.8142C55.7858 38.0463 55.5482 38.3299 55.3843 38.6468C55.2203 38.9637 55.1336 39.3071 55.1297 39.6549C55.1297 41.3809 56.3522 42.0809 59.1747 43.1549L60.8197 43.7718C66.4097 45.8696 69.5697 48.0068 69.5697 52.8128C69.5697 57.9949 64.9172 60.8343 58.6697 60.8343C56.2354 60.97 53.8083 60.4864 51.6812 59.4419C49.5541 58.3974 47.8179 56.8365 46.6822 54.9478L52.0222 52.2265ZM28.7847 52.7253C29.8172 54.3287 30.7572 55.6849 33.0172 55.6849C35.1772 55.6849 36.5422 54.9456 36.5422 52.069V32.4974H43.1197V52.1456C43.1197 58.1043 39.1197 60.8168 33.2972 60.8168C31.2391 60.9153 29.1951 60.4665 27.4339 59.5294C25.6727 58.5924 24.2768 57.211 23.4297 55.5668L28.7847 52.7253Z" fill="black"/>
</svg>
