<svg width="80" height="70" viewBox="0 0 80 70" fill="none" xmlns="http://www.w3.org/2000/svg">
<g clip-path="url(#clip0_42_373)">
<path d="M25.832 27.326C25.832 22.3419 24.4364 17.0485 22.0216 17.0485C19.3097 17.0485 16.3306 23.9574 15.8753 37.7403C15.4102 51.6611 17.9042 57.8482 20.4181 57.8482C22.9322 57.8482 24.2484 54.4454 25.5945 49.9084C24.4364 44.8554 22.942 47.193 22.655 47.7085C22.3383 48.2582 21.9325 49.0147 21.1011 49.0147C20.1311 49.0147 19.1414 47.5023 19.1414 41.2121C25.357 39.0812 25.832 32.3096 25.832 27.326ZM22.7539 28.1509C22.7144 29.6974 22.5362 32.3443 19.3889 33.8219C20.052 25.6417 21.3187 25.0231 21.9028 25.0231C22.4472 25.0231 22.7934 26.5007 22.7539 28.1509ZM12.2231 29.4912C12.2231 29.4912 10.8872 44.0647 10.7781 45.2678C10.7386 44.0305 9.75875 17.8733 9.75875 17.8733C7.48234 17.8733 6.265 23.5102 5.62172 29.457C5.62172 29.457 3.99844 44.0647 3.86 45.3019C3.85 44.1678 3.6125 29.629 3.6125 29.629C3.47391 22.3414 1.55391 17.9081 0 17.9081L1.88047 57.5389C4.26578 57.5047 5.55234 51.902 6.22547 45.9553C6.22547 45.9553 7.66047 33.066 7.71984 32.4816C7.72984 33.0313 8.74922 57.5389 8.74922 57.5389C11.1444 57.5389 12.4311 52.2797 13.1239 46.5397L16.4791 17.9081C14.1134 17.9081 12.8666 23.5102 12.2231 29.4912ZM34.6208 16.9796C33.1461 16.9796 32.0178 19.7639 31.0677 23.8543V23.8201L31.9189 0C29.9592 0 28.3658 5.91202 28.0589 14.7109L26.5742 57.2296C27.7027 57.2296 28.9002 56.0955 29.5434 53.2081C30.1175 55.7857 30.9786 57.8482 32.2553 57.8482C35.5611 57.8482 37.8275 44.5119 37.8275 32.0003C37.8078 20.5887 36.2142 16.9802 34.6208 16.9802V16.9796ZM34.3141 37.4316C33.9677 44.4088 32.8492 49.1525 31.7703 49.1525C30.6817 49.1525 30.2166 47.4676 30.2166 47.4676C30.4244 41.3494 30.553 37.603 30.9489 34.3722C31.3448 31.1413 32.285 25.9852 33.2648 25.9852C34.2248 25.9852 34.6605 30.4191 34.3141 37.431V37.4316ZM46.0819 17.907H43.7758L43.7858 17.4946C43.9441 12.2701 44.3003 9.52054 45.4781 9.07395C46.2798 8.79884 46.6361 7.35488 46.7252 5.77419C46.7945 4.53698 47.0122 0.239845 47.0122 0.239845C42.3803 0.136744 40.9255 7.08031 40.5494 17.6666L40.5394 17.9075H40.4898C39.7377 17.9075 38.9064 20.8633 38.7678 24.6096L38.7183 25.9847H40.2623L38.9658 63.1753L38.5698 69.8437C38.6194 69.8437 38.6787 69.8779 38.7281 69.8779C40.8958 69.6028 42.2812 63.6566 42.5881 55.0292L43.5977 25.9847H44.3202C45.0327 25.9847 45.8642 23.5102 46.0127 19.3851L46.0819 17.9075V17.907ZM58.0775 17.22C55.415 17.22 52.9011 24.0257 52.1291 34.7151C51.3572 45.405 52.525 58.0539 56.4444 58.0539C60.3537 58.0539 62.6105 44.8895 62.6105 33.9245C62.6105 23.0284 60.4825 17.22 58.0775 17.22ZM59.1562 37.087C59.0177 41.9333 58.4041 49.2892 56.7216 49.2892C55.0291 49.2892 55.2666 40.696 55.4348 36.6057C55.613 32.2407 56.3158 26.0188 57.8302 26.0188C59.1859 26.0188 59.3145 31.6216 59.1562 37.087ZM75.7641 29.4906C75.7641 29.4906 74.4278 44.0642 74.3189 45.2672C74.2794 44.03 73.2995 17.8728 73.2995 17.8728C71.0231 17.8728 69.8058 23.5097 69.1625 29.4564C69.1625 29.4564 67.5392 44.0642 67.4008 45.3014C67.3908 44.1673 67.1533 29.6285 67.1533 29.6285C67.0147 22.3409 65.0947 17.9075 63.5408 17.9075L65.4114 57.5384C67.7966 57.5042 69.0833 51.9015 69.7562 45.9547C69.7562 45.9547 71.1914 33.0655 71.2409 32.4811C71.2508 33.0308 72.2702 57.5384 72.2702 57.5384C74.6655 57.5384 75.952 52.2791 76.6448 46.5392L80 17.9081C77.6444 17.9081 76.3973 23.5102 75.7641 29.4912V29.4906ZM48.2594 0.240388L46.3194 54.5826L45.9236 61.2853C45.973 61.2853 46.0323 61.32 46.0819 61.32C48.1702 61.2169 49.6548 54.8578 49.9319 46.849L51.0503 15.6735C51.3869 6.1524 49.7537 0.24093 48.2594 0.24093V0.240388Z" fill="#4353FF"/>
</g>
<defs>
<clipPath id="clip0_42_373">
<rect width="80" height="70" fill="white"/>
</clipPath>
</defs>
</svg>
