<svg width="27" height="33" viewBox="0 0 27 33" fill="none" xmlns="http://www.w3.org/2000/svg">
<g clip-path="url(#clip0_50_54)">
<path d="M25.9595 3.49165L20.418 0.204902C20.105 0.0192904 19.753 -0.0419044 19.4105 0.029786C19.0681 0.101476 18.7522 0.302507 18.5066 0.60506L0.365529 20.9802C-0.12237 21.5284 -0.121737 22.4746 0.366794 23.0218L1.84863 24.6812C2.04222 24.898 2.29129 25.0245 2.55268 25.0389C2.81406 25.0532 3.07128 24.9544 3.27974 24.7596L25.1257 4.34432C25.8586 3.65951 26.9113 4.3034 26.9113 5.43657V5.35732C26.9113 4.96752 26.8219 4.58563 26.6536 4.25559C26.4852 3.92555 26.2446 3.66075 25.9595 3.49165Z" fill="#0065A9"/>
<path d="M25.9595 29.4682L20.418 32.7549C20.105 32.9405 19.753 33.0017 19.4105 32.93C19.0681 32.8583 18.7522 32.6573 18.5066 32.3548L0.365529 11.9796C-0.12237 11.4316 -0.121737 10.4853 0.366794 9.93817L1.84863 8.27868C2.04223 8.06187 2.29131 7.93535 2.55269 7.92104C2.81408 7.90673 3.07129 8.00554 3.27974 8.20034L25.1257 28.6155C25.8586 29.3003 26.9113 28.6564 26.9113 27.5231V27.6025C26.9113 27.9923 26.8219 28.3742 26.6536 28.7042C26.4852 29.0343 26.2446 29.2991 25.9595 29.4682Z" fill="#007ACC"/>
<path d="M20.4009 32.7576C20.0878 32.9431 19.7357 33.0042 19.3933 32.9324C19.0508 32.8607 18.7349 32.6596 18.4893 32.357C19.1095 33.121 20.1702 32.5799 20.1702 31.4992V1.46463C20.1702 0.383947 19.1095 -0.157175 18.4893 0.606892C18.7349 0.304316 19.0508 0.103234 19.3933 0.0314537C19.7357 -0.0403262 20.0878 0.0207426 20.4009 0.206215L25.9415 3.48842C26.2268 3.65742 26.4675 3.92223 26.636 4.25236C26.8045 4.58249 26.8939 4.96452 26.8939 5.35448V27.6096C26.8939 28.4054 26.5237 29.1308 25.9415 29.4757L20.4009 32.7577V32.7576Z" fill="#1F9CF0"/>
<path d="M19.0717 32.8189C19.2857 32.9216 19.5146 32.9691 19.7441 32.9582C19.9736 32.9474 20.1989 32.8784 20.4059 32.7557L25.943 29.4735C26.2282 29.3044 26.4688 29.0396 26.6372 28.7095C26.8057 28.3793 26.895 27.9974 26.8949 27.6075V5.35247C26.895 4.96259 26.8057 4.58062 26.6373 4.25051C26.4689 3.92039 26.2283 3.65553 25.9431 3.48641L20.4058 0.204082C20.0929 0.01865 19.741 -0.0423986 19.3987 0.0293856C19.0564 0.10117 18.7407 0.302237 18.4953 0.604759L7.89506 12.518L3.27764 8.20048C3.06936 8.00572 2.8123 7.90692 2.55107 7.92123C2.28983 7.93554 2.04091 8.06205 1.84748 8.27882L0.366597 9.9383C-0.121724 10.4854 -0.122251 11.4317 0.365331 11.9798L4.36966 16.48L0.365331 20.9801C-0.122251 21.5282 -0.121724 22.4744 0.366597 23.0216L1.84748 24.681C2.0409 24.8978 2.28981 25.0243 2.55105 25.0386C2.81228 25.053 3.06935 24.9542 3.27764 24.7595L7.89506 20.4418L18.4953 32.3549C18.6592 32.5571 18.8555 32.7151 19.0717 32.8189ZM20.1753 8.95883L12.1321 16.48L20.1753 24.0009V8.95896V8.95883Z" fill="url(#paint0_linear_50_54)" fill-opacity="0.25"/>
</g>
<defs>
<linearGradient id="paint0_linear_50_54" x1="13.4475" y1="0.00012207" x2="13.4475" y2="32.9597" gradientUnits="userSpaceOnUse">
<stop stop-color="white"/>
<stop offset="1" stop-color="white" stop-opacity="0"/>
</linearGradient>
<clipPath id="clip0_50_54">
<rect width="27" height="33" fill="white"/>
</clipPath>
</defs>
</svg>
