<svg width="80" height="70" viewBox="0 0 80 70" fill="none" xmlns="http://www.w3.org/2000/svg">
<g clip-path="url(#clip0_42_334)">
<path d="M65.7759 22.6655C64.9246 22.3785 64.0659 22.1126 63.2009 21.8681C63.3462 21.2848 63.48 20.7085 63.5988 20.1424C65.5481 10.8456 64.2738 3.35589 59.9209 0.889927C55.7475 -1.47411 48.9222 0.990936 42.0291 6.88475C41.3497 7.46665 40.6854 8.06532 40.0369 8.68019C39.6027 8.27132 39.1609 7.87039 38.7116 7.4776C31.4872 1.17576 24.2459 -1.48025 19.8978 0.992778C15.7281 3.36418 14.4934 10.405 16.2484 19.2158C16.423 20.0884 16.6202 20.9565 16.8397 21.8193C15.8147 22.1055 14.8256 22.41 13.8791 22.7342C5.40906 25.6355 0 30.1822 0 34.8983C0 39.7691 5.80688 44.6547 14.6287 47.6171C15.344 47.8563 16.0651 48.0779 16.7916 48.2818C16.5556 49.211 16.3462 50.1466 16.1634 51.0873C14.4903 59.7452 15.7969 66.6196 19.9553 68.976C24.2503 71.4094 31.4591 68.9084 38.4781 62.8801C39.0473 62.3901 39.6039 61.8861 40.1475 61.3687C40.8499 62.0345 41.571 62.6809 42.31 63.3072C49.1094 69.0552 55.8244 71.3762 59.9788 69.0134C64.2697 66.573 65.6644 59.188 63.8538 50.2031C63.7111 49.4992 63.5512 48.7988 63.3741 48.1025C63.8803 47.9551 64.3772 47.8034 64.8616 47.6456C74.0328 44.6605 80 39.8342 80 34.8983C80 30.165 74.4163 25.5876 65.7759 22.6655ZM63.7869 44.4588C63.3494 44.6009 62.9006 44.7382 62.4431 44.8717C61.4306 41.7226 60.0644 38.3743 58.3922 34.9145C59.9878 31.5373 61.3016 28.2317 62.2856 25.1032C63.1041 25.3359 63.8981 25.5812 64.6637 25.84C72.0669 28.344 76.5825 32.0458 76.5825 34.8983C76.5825 37.9365 71.7056 41.8808 63.7869 44.4588ZM60.5013 50.8552C61.3019 54.828 61.4159 58.4201 60.8856 61.2284C60.4094 63.7518 59.4512 65.4339 58.2663 66.1078C55.7453 67.5416 50.3537 65.678 44.5391 60.762C43.8517 60.1797 43.1809 59.5788 42.5275 58.9598C44.7819 56.5378 47.0347 53.7221 49.2334 50.5948C53.1009 50.2577 56.7547 49.7063 60.0681 48.9538C60.2277 49.5842 60.3722 50.2181 60.5013 50.8552ZM27.2738 65.8601C24.8106 66.7145 22.8487 66.7391 21.6628 66.0673C19.1394 64.6375 18.0903 59.1176 19.5212 51.7136C19.6913 50.8387 19.8861 49.9686 20.1053 49.1043C23.3822 49.8166 27.0094 50.3287 30.8859 50.6375C33.0997 53.6976 35.4175 56.5101 37.7534 58.973C37.257 59.445 36.7488 59.9048 36.2294 60.3522C33.1253 63.0177 30.015 64.9089 27.2738 65.8601ZM15.7344 44.4401C11.8334 43.13 8.61188 41.4276 6.40375 39.5698C4.41938 37.9006 3.41781 36.243 3.41781 34.8983C3.41781 32.0362 7.76062 28.3858 15.0041 25.9048C15.8831 25.6039 16.8031 25.3199 17.7578 25.0534C18.7591 28.2526 20.0722 31.5975 21.6569 34.9799C20.0516 38.4124 18.7197 41.8108 17.7087 45.0476C17.0457 44.861 16.3873 44.6584 15.7344 44.4401ZM19.6025 18.5708C18.0991 11.0221 19.0975 5.32787 21.6103 3.8987C24.2866 2.37651 30.2047 4.54681 36.4425 9.98839C36.8493 10.344 37.2494 10.7069 37.6428 11.0768C35.3184 13.5289 33.0219 16.3206 30.8278 19.3626C27.0653 19.7052 23.4637 20.2554 20.1525 20.9925C19.9485 20.19 19.7651 19.3826 19.6025 18.5711V18.5708ZM54.1109 26.9425C53.3288 25.6153 52.5177 24.3047 51.6781 23.0118C54.2306 23.3289 56.6763 23.7498 58.9728 24.2644C58.2834 26.4356 57.4241 28.7054 56.4125 31.0326C55.6731 29.6543 54.9058 28.2907 54.1109 26.9425ZM40.0384 13.4764C41.6147 15.1543 43.1934 17.0274 44.7463 19.0598C41.5963 18.9137 38.441 18.9131 35.2909 19.058C36.8453 17.0443 38.4375 15.1736 40.0384 13.4764ZM25.8756 26.9655C25.0907 28.3029 24.3377 29.658 23.6172 31.0298C22.6222 28.7109 21.7706 26.4307 21.0753 24.2288C23.3578 23.7271 25.7919 23.3169 28.3281 23.0056C27.4792 24.3065 26.6615 25.6267 25.8756 26.9652V26.9655ZM28.4009 47.0298C25.7806 46.7424 23.31 46.3534 21.0281 45.8652C21.7344 43.624 22.6047 41.2953 23.6213 38.9266C24.3446 40.2995 25.1008 41.6555 25.8891 42.9934C26.6997 44.3688 27.5391 45.716 28.4009 47.0298ZM40.1328 56.5565C38.5128 54.8397 36.8972 52.9401 35.3194 50.8973C36.8512 50.9562 38.4128 50.9863 40 50.9863C41.6306 50.9863 43.2425 50.9504 44.8291 50.881C43.2713 52.9607 41.6984 54.863 40.1328 56.5565ZM56.4447 38.8057C57.5141 41.2004 58.4153 43.5169 59.1309 45.7197C56.8116 46.2398 54.3072 46.6586 51.6684 46.9696C52.514 45.6526 53.3328 44.3193 54.1244 42.9704C54.9292 41.5992 55.7028 40.2106 56.4447 38.8057ZM51.1641 41.2928C49.9522 43.361 48.6723 45.3899 47.3262 47.3764C44.888 47.546 42.4444 47.6303 40 47.6291C37.5103 47.6291 35.0887 47.5529 32.7569 47.4043C31.3757 45.4225 30.0713 43.39 28.8466 41.3112H28.8469C27.6279 39.2435 26.4892 37.131 25.4334 34.9784C26.4866 32.8252 27.6217 30.7118 28.8366 28.6425L28.8363 28.6428C30.0506 26.5729 31.3446 24.5491 32.7153 22.5758C35.0944 22.399 37.5341 22.3069 39.9997 22.3069H40C42.4769 22.3069 44.9197 22.3999 47.2981 22.578C48.655 24.5483 49.9407 26.5652 51.1528 28.6247C52.3717 30.6894 53.5219 32.7926 54.6016 34.9308C53.533 37.0909 52.3864 39.2129 51.1641 41.2928ZM58.2141 3.79861C60.8928 5.31651 61.9347 11.4375 60.2516 19.4645C60.1441 19.9766 60.0234 20.4982 59.8922 21.0272C56.5728 20.2744 52.9688 19.7147 49.1953 19.3669C46.9972 16.2915 44.7194 13.4955 42.4328 11.0749C43.0321 10.5074 43.6456 9.95461 44.2728 9.41703C50.1791 4.36752 55.6991 2.37374 58.2141 3.79861ZM40 27.8798C43.9453 27.8798 47.1437 31.0222 47.1437 34.8983C47.1437 38.7744 43.9453 41.9167 40 41.9167C36.0547 41.9167 32.8563 38.7744 32.8563 34.8983C32.8563 31.0222 36.0547 27.8798 40 27.8798Z" fill="#00D8FF"/>
</g>
<defs>
<clipPath id="clip0_42_334">
<rect width="80" height="70" fill="white"/>
</clipPath>
</defs>
</svg>
