<svg width="80" height="70" viewBox="0 0 80 70" fill="none" xmlns="http://www.w3.org/2000/svg">
<g clip-path="url(#clip0_42_339)">
<path d="M39.5484 69.798C39.2776 69.798 39.0248 69.6951 38.7899 69.5147L36.3882 67.4794C36.027 67.1958 36.2076 67.0928 36.316 67.0413C36.8035 66.8095 36.8938 66.7577 37.3995 66.3458C37.4537 66.294 37.526 66.3199 37.5801 66.3714L39.4221 67.9431C39.4943 67.9946 39.5846 67.9946 39.6387 67.9431L46.8441 61.9913C46.9163 61.9398 46.9526 61.8366 46.9526 61.7079V49.8302C46.9526 49.7011 46.9163 49.5984 46.8441 49.5467L39.6387 43.6207C39.5665 43.569 39.4762 43.569 39.4221 43.6207L32.2166 49.5467C32.1445 49.5981 32.1082 49.727 32.1082 49.83V61.7077C32.1082 61.8109 32.1445 61.9396 32.2166 61.9913L34.1851 63.6144C35.2505 64.3873 35.9187 63.4856 35.9187 62.5838V50.8606C35.9187 50.7061 36.009 50.5514 36.1354 50.5514H37.0563C37.1648 50.5514 37.273 50.6802 37.273 50.8606V62.5838C37.273 64.6192 36.4965 65.8045 35.1421 65.8045C34.7268 65.8045 34.4018 65.8045 33.4807 65.1602L31.5846 63.6144C31.1151 63.2281 30.8262 62.5065 30.8262 61.7336V49.8559C30.8262 49.083 31.1151 48.3613 31.5846 47.975L38.7899 42.0232C39.2415 41.6625 39.8555 41.6625 40.307 42.0232L47.5123 47.975C47.9818 48.3613 48.2709 49.083 48.2709 49.8559V61.7336C48.2709 62.5065 47.9818 63.2281 47.5123 63.6144L40.307 69.5662C40.0721 69.7209 39.8013 69.798 39.5485 69.798H39.5484ZM41.7696 61.6306C38.6095 61.6306 37.9593 59.5694 37.9593 57.8173C37.9593 57.6626 38.0496 57.5081 38.176 57.5081H39.1151C39.2234 57.5081 39.3137 57.6111 39.3137 57.7659C39.4582 59.1313 39.8735 59.8012 41.7877 59.8012C43.3046 59.8012 43.9549 59.3117 43.9549 58.1522C43.9549 57.4823 43.7741 56.993 41.4085 56.6579C39.4401 56.3743 38.2121 55.7561 38.2121 53.5146C38.2121 51.4275 39.4402 50.1907 41.4988 50.1907C43.8102 50.1907 44.948 51.3245 45.0926 53.7977C45.0926 53.8753 45.0745 53.9524 45.0384 54.0298C45.0021 54.0813 44.948 54.1328 44.8938 54.1328H43.9548C43.8645 54.1328 43.7741 54.0298 43.7562 53.9009C43.5395 52.484 42.9796 52.0201 41.4988 52.0201C39.8374 52.0201 39.6387 52.8447 39.6387 53.4629C39.6387 54.2101 39.8735 54.442 42.1127 54.8542C44.334 55.2666 45.3815 55.8591 45.3815 58.0748C45.3634 60.3423 44.0632 61.6306 41.7696 61.6306Z" fill="#539E43"/>
<path d="M17.1919 23.3433C17.1919 22.8796 17.0113 22.4413 16.7224 22.2094L9.06551 15.9228C8.93895 15.8196 8.79457 15.7681 8.6502 15.7422H8.57785C8.43348 15.7422 8.28895 15.8196 8.16254 15.9228L0.505664 22.2094C0.216602 22.4413 0.0361328 22.8793 0.0361328 23.3433L0.0542578 40.2451C0.0542578 40.477 0.14457 40.7088 0.288945 40.812C0.433477 40.9409 0.613945 40.9409 0.740508 40.812L5.29129 37.1018C5.5802 36.87 5.76082 36.4319 5.76082 35.9682V28.0582C5.76082 27.5945 5.94129 27.1565 6.23035 26.9246L8.16254 25.3271C8.30707 25.1982 8.46957 25.1465 8.63207 25.1465C8.79457 25.1465 8.95707 25.1982 9.08363 25.3271L11.0158 26.9246C11.3049 27.1565 11.4854 27.5943 11.4854 28.0582V35.9682C11.4854 36.4319 11.666 36.87 11.9549 37.1018L16.5057 40.812C16.576 40.8752 16.6574 40.9087 16.7404 40.9087C16.8235 40.9087 16.9049 40.8752 16.9752 40.812C17.1197 40.7088 17.21 40.477 17.21 40.2451L17.1919 23.3433ZM53.9955 0.0771683C53.8511 -0.0260483 53.6705 -0.0260483 53.544 0.0771683C53.3996 0.206022 53.3093 0.412009 53.3093 0.643856V17.3915C53.3093 17.546 53.2552 17.7004 53.1468 17.8037C53.0385 17.8808 52.93 17.8808 52.8218 17.8037L50.9075 16.232C50.7672 16.118 50.6085 16.0581 50.447 16.0581C50.2855 16.0581 50.1268 16.118 49.9865 16.232L42.3296 22.5445C42.0407 22.7763 41.86 23.2144 41.86 23.6781V36.2772C41.86 36.7409 42.0407 37.1792 42.3296 37.411L49.9865 43.7235C50.1268 43.8375 50.2855 43.8975 50.447 43.8975C50.6085 43.8975 50.7672 43.8375 50.9075 43.7235L58.5644 37.411C58.8533 37.1792 59.034 36.7411 59.034 36.2772V4.86949C59.034 4.37994 58.8533 3.9421 58.5644 3.71003L53.9957 0.0771683H53.9955ZM53.2913 32.1291C53.2913 32.258 53.2552 32.361 53.1829 32.4125L50.5644 34.5767C50.5278 34.6021 50.4877 34.6154 50.447 34.6154C50.4063 34.6154 50.3661 34.6021 50.3296 34.5767L47.7111 32.4125C47.6388 32.361 47.6027 32.2321 47.6027 32.1291V27.8005C47.6027 27.6717 47.6388 27.5687 47.7111 27.5172L50.3296 25.3527C50.3661 25.3273 50.4063 25.3141 50.447 25.3141C50.4877 25.3141 50.5278 25.3273 50.5644 25.3527L53.1829 27.5172C53.2552 27.5684 53.2913 27.6975 53.2913 27.8005V32.1291ZM79.4763 27.6975C79.7654 27.4657 79.9279 27.0276 79.9279 26.5637V23.4977C79.9279 23.034 79.7472 22.596 79.4763 22.3641L71.8736 16.0775C71.7333 15.9635 71.5746 15.9036 71.4131 15.9036C71.2516 15.9036 71.0929 15.9635 70.9526 16.0775L63.2957 22.3898C63.0066 22.6216 62.8261 23.0597 62.8261 23.5234V36.1227C62.8261 36.5864 63.0068 37.0245 63.2957 37.2563L70.8983 43.4399C71.1874 43.6718 71.5305 43.6718 71.8015 43.4399L76.4063 39.7817C76.5508 39.6784 76.6411 39.4466 76.6411 39.2147C76.6411 38.9829 76.5508 38.751 76.4063 38.6478L68.7133 32.3354C68.5688 32.2065 68.4785 32.0005 68.4785 31.7687V27.8266C68.4785 27.5947 68.5688 27.3629 68.7133 27.2597L71.115 25.3015C71.1854 25.2383 71.2667 25.2048 71.3498 25.2048C71.4329 25.2048 71.5143 25.2383 71.5846 25.3015L73.9865 27.2597C74.131 27.3885 74.2211 27.5945 74.2211 27.8266V30.9184C74.2211 31.1503 74.3115 31.3821 74.456 31.4851C74.5263 31.5482 74.6077 31.5818 74.6908 31.5818C74.7738 31.5818 74.8552 31.5482 74.9255 31.4851L79.4763 27.6975Z" fill="#333333"/>
<path d="M71.2961 27.1051C71.3229 27.0798 71.3543 27.0664 71.3864 27.0664C71.4186 27.0664 71.45 27.0798 71.4768 27.1051L72.9396 28.316C72.9936 28.3677 73.0297 28.4449 73.0297 28.5479V30.97C73.0297 31.073 72.9938 31.1504 72.9396 31.2018L71.4768 32.4128C71.45 32.438 71.4186 32.4515 71.3864 32.4515C71.3543 32.4515 71.3229 32.438 71.2961 32.4128L69.8335 31.2018C69.7793 31.1504 69.7432 31.073 69.7432 30.97V28.5481C69.7432 28.4449 69.7791 28.3675 69.8335 28.3162L71.2961 27.1051Z" fill="#539E43"/>
<path d="M37.6161 22.3901L29.9773 16.1293C29.9022 16.0753 29.8236 16.0321 29.7425 16.0005L21.1826 36.922C21.2535 37.0455 21.3392 37.1502 21.4356 37.2312L29.0743 43.4922C29.2911 43.6726 29.5439 43.7241 29.7786 43.6208L37.8148 22.648C37.7606 22.545 37.6882 22.4675 37.6161 22.3903V22.3901Z" fill="url(#paint0_linear_42_339)"/>
<path fill-rule="evenodd" clip-rule="evenodd" d="M28.8221 13.8359L28.7139 13.9133H28.8582L28.8221 13.8359Z" fill="url(#paint1_linear_42_339)"/>
<path fill-rule="evenodd" clip-rule="evenodd" d="M37.6343 37.2051C37.8511 37.0248 38.0136 36.7156 38.0859 36.3807L29.7064 15.9746C29.4896 15.9231 29.2548 15.9488 29.0564 16.1291L21.4717 22.3645L29.6521 43.6465C29.7711 43.6187 29.8867 43.5667 29.9953 43.492L37.6342 37.2054L37.6343 37.2051Z" fill="url(#paint2_linear_42_339)"/>
<path fill-rule="evenodd" clip-rule="evenodd" d="M38.3384 36.999L38.2842 36.8701V37.0505L38.3382 36.999H38.3384Z" fill="url(#paint3_linear_42_339)"/>
<path fill-rule="evenodd" clip-rule="evenodd" d="M37.6348 37.205L30.014 43.466C29.9064 43.5442 29.7905 43.5965 29.6709 43.6205L29.8154 44.007L38.2668 37.0249V36.8702L38.0501 36.3547C38.014 36.7154 37.8515 37.0246 37.6348 37.205Z" fill="url(#paint4_linear_42_339)"/>
<path fill-rule="evenodd" clip-rule="evenodd" d="M37.6348 37.205L30.014 43.466C29.9064 43.5442 29.7905 43.5965 29.6709 43.6205L29.8154 44.007L38.2668 37.0249V36.8702L38.0501 36.3547C38.014 36.7154 37.8515 37.0246 37.6348 37.205Z" fill="url(#paint5_linear_42_339)"/>
</g>
<defs>
<linearGradient id="paint0_linear_42_339" x1="28.3805" y1="31.2674" x2="51.988" y2="22.2777" gradientUnits="userSpaceOnUse">
<stop offset="0.1376" stop-color="#41873F"/>
<stop offset="0.4032" stop-color="#54A044"/>
<stop offset="0.7136" stop-color="#66B848"/>
<stop offset="0.9081" stop-color="#6CC04A"/>
</linearGradient>
<linearGradient id="paint1_linear_42_339" x1="22.3415" y1="13.8463" x2="36.4061" y2="13.8463" gradientUnits="userSpaceOnUse">
<stop offset="0.09192" stop-color="#6CC04A"/>
<stop offset="0.2864" stop-color="#66B848"/>
<stop offset="0.5968" stop-color="#54A044"/>
<stop offset="0.8624" stop-color="#41873F"/>
</linearGradient>
<linearGradient id="paint2_linear_42_339" x1="20.7425" y1="29.798" x2="38.3349" y2="29.798" gradientUnits="userSpaceOnUse">
<stop offset="0.09192" stop-color="#6CC04A"/>
<stop offset="0.2864" stop-color="#66B848"/>
<stop offset="0.5968" stop-color="#54A044"/>
<stop offset="0.8624" stop-color="#41873F"/>
</linearGradient>
<linearGradient id="paint3_linear_42_339" x1="33.0175" y1="36.9354" x2="38.2993" y2="36.9354" gradientUnits="userSpaceOnUse">
<stop offset="0.09192" stop-color="#6CC04A"/>
<stop offset="0.2864" stop-color="#66B848"/>
<stop offset="0.5968" stop-color="#54A044"/>
<stop offset="0.8624" stop-color="#41873F"/>
</linearGradient>
<linearGradient id="paint4_linear_42_339" x1="20.7431" y1="40.2019" x2="38.3353" y2="40.2019" gradientUnits="userSpaceOnUse">
<stop offset="0.09192" stop-color="#6CC04A"/>
<stop offset="0.2864" stop-color="#66B848"/>
<stop offset="0.5968" stop-color="#54A044"/>
<stop offset="0.8624" stop-color="#41873F"/>
</linearGradient>
<linearGradient id="paint5_linear_42_339" x1="40.8983" y1="20.2031" x2="32.1445" y2="52.3528" gradientUnits="userSpaceOnUse">
<stop stop-color="#41873F"/>
<stop offset="0.3288" stop-color="#418B3D"/>
<stop offset="0.6352" stop-color="#419637"/>
<stop offset="0.9319" stop-color="#3FA92D"/>
<stop offset="1" stop-color="#3FAE2A"/>
</linearGradient>
<clipPath id="clip0_42_339">
<rect width="80" height="70" fill="white"/>
</clipPath>
</defs>
</svg>
