<svg width="80" height="70" viewBox="0 0 80 70" fill="none" xmlns="http://www.w3.org/2000/svg">
<g clip-path="url(#clip0_42_369)">
<path d="M55.4316 48.6939C58.3837 48.4133 60.6234 46.0769 60.5216 43.2729C60.42 40.4692 57.8747 38.226 54.8206 38.226H54.6172C51.4609 38.3195 49.0178 40.7495 49.1197 43.6467C49.2216 45.0487 49.8322 46.2637 50.7484 47.1048C47.2872 53.367 41.9934 57.9465 34.0528 61.7784C28.6572 64.3954 23.0581 65.3301 17.4591 64.676C12.8778 64.1151 9.31468 62.2461 7.07468 59.1615C3.81718 54.5819 3.51187 49.6283 6.26062 44.6749C8.195 41.1233 11.2487 38.5063 13.1831 37.1978C12.7759 35.9829 12.165 33.9268 11.8597 32.4315C-2.90188 42.245 -1.37469 55.5166 3.10468 61.7784C6.46406 66.4518 13.285 69.3491 20.8184 69.3491C22.8544 69.3491 24.8903 69.162 26.9266 68.695C39.9575 66.3583 49.8325 59.255 55.4316 48.6939ZM73.3491 37.1046C65.6119 28.7864 54.21 24.2068 41.1791 24.2068H39.5503C38.6341 22.5245 36.6997 21.4028 34.5619 21.4028H34.3581C31.2025 21.4963 28.7594 23.9262 28.8609 26.8238C28.9628 29.6275 31.5078 31.8707 34.5619 31.8707H34.7653C37.005 31.7771 38.9394 30.4686 39.7537 28.6928H41.5862C49.3234 28.6928 56.6531 30.7489 63.2706 34.7679C68.3606 37.8522 72.0256 41.8712 74.0616 46.731C75.7922 50.6565 75.6903 54.4884 73.8578 57.7598C71.0075 62.7131 66.2228 65.4236 59.9109 65.4236C55.8387 65.4236 51.9703 64.3019 49.9341 63.4607C48.8144 64.3954 46.7781 65.8907 45.3528 66.8256C49.7306 68.6947 54.21 69.7229 58.4856 69.7229C68.2588 69.7229 75.4869 64.7692 78.2356 59.8159C81.1878 54.3949 80.9841 45.0487 73.3491 37.1046ZM21.6328 50.2824C21.7347 53.0864 24.2797 55.3293 27.3337 55.3293H27.5375C30.6934 55.236 33.1366 52.8058 33.0347 49.9086C32.9331 47.1045 30.3878 44.8617 27.3337 44.8617H27.1303C26.9266 44.8617 26.6209 44.8617 26.4178 44.9549C22.2437 38.5996 20.5131 31.6836 21.1241 24.2065C21.5309 18.5988 23.5672 13.7386 27.1303 9.71967C30.0825 6.26156 35.7834 4.57926 39.6522 4.48602C50.4431 4.29898 55.0241 16.6359 55.3297 21.5896C56.6531 21.8698 58.8928 22.5242 60.42 22.9916C59.1981 7.8509 49.0178 0 39.245 0C30.0825 0 21.6328 6.07508 18.2731 15.0474C13.5903 27.0105 16.6444 38.5063 22.3453 47.5722C21.8366 48.2263 21.5309 49.2545 21.6328 50.2827V50.2824Z" fill="#764ABC"/>
</g>
<defs>
<clipPath id="clip0_42_369">
<rect width="80" height="70" fill="white"/>
</clipPath>
</defs>
</svg>
