<svg width="80" height="70" viewBox="0 0 80 70" fill="none" xmlns="http://www.w3.org/2000/svg">
<g clip-path="url(#clip0_42_356)">
<path d="M53.2033 19.3075L60.1574 11.7458L60.6208 8.56184C47.9486 -3.96783 27.8046 -2.5471 16.3808 11.5263C13.208 15.4351 10.8539 20.3082 9.59863 25.3404L12.0893 24.9588L25.9971 22.4647L27.0708 21.2709C33.2574 13.8829 43.7177 12.8889 50.8608 19.175L53.2033 19.3075Z" fill="#EA4335"/>
<path d="M70.0637 25.1178C68.4654 18.7172 65.1836 12.9632 60.6209 8.56177L50.8609 19.1746C52.895 20.9818 54.5251 23.2678 55.6283 25.8599C56.7315 28.4521 57.2789 31.2828 57.2293 34.1386V36.0225C62.0262 36.0225 65.9159 40.2514 65.9159 45.4677C65.9159 50.6844 62.0265 54.8073 57.2293 54.8073H39.8321L38.124 56.8237V68.1528L39.8321 69.9304H57.229C69.7071 70.036 79.9018 59.2285 79.999 45.6601C80.028 41.6109 79.1362 37.6167 77.4028 34.0328C75.6694 30.4489 73.1483 27.3864 70.0637 25.1178Z" fill="#4285F4"/>
<path d="M22.459 69.9307H39.8318V54.8073H22.459C21.2292 54.8071 20.014 54.5176 18.8968 53.9585L16.4321 54.7808L9.42934 62.3425L8.81934 64.9162C12.7465 68.1406 17.5381 69.9538 22.459 69.9307Z" fill="#34A853"/>
<path d="M22.4595 20.8725C9.98135 20.9537 -0.0739651 32.0191 0.000409944 45.5879C0.0209246 49.327 0.826032 53.0116 2.35439 56.3611C3.88275 59.7106 6.09404 62.6365 8.81978 64.9161L18.8973 53.9587C14.5254 51.8104 12.5823 46.2159 14.5576 41.462C16.5326 36.7081 21.6782 34.5952 26.0498 36.7428C27.9763 37.6892 29.5192 39.3671 30.3895 41.462L40.467 30.5039C38.3519 27.4971 35.6257 25.0631 32.5018 23.3922C29.3779 21.7214 25.9408 20.859 22.4595 20.8725Z" fill="#FBBC05"/>
</g>
<defs>
<clipPath id="clip0_42_356">
<rect width="80" height="70" fill="white"/>
</clipPath>
</defs>
</svg>
