<svg width="80" height="70" viewBox="0 0 80 70" fill="none" xmlns="http://www.w3.org/2000/svg">
<g clip-path="url(#clip0_42_390)">
<path d="M23.7984 46.1913L26.2297 56.3176C26.7759 58.6168 27.0038 60.2218 26.9125 61.1366C28.2422 56.5651 29.1713 51.5833 29.6998 46.1913H32.6233C31.3663 54.9695 29.7083 61.3486 27.6503 65.3279C26.0469 68.3945 24.2903 69.9277 22.3775 69.9277C21.8675 69.9277 21.2388 69.7299 20.4927 69.3372V67.2212C20.8572 67.2897 21.2848 67.3265 21.7767 67.3265C22.6691 67.3265 23.3883 67.0089 23.9355 66.3753C24.5906 65.6033 24.9186 64.7357 24.9186 63.7739C24.9186 63.1172 24.6628 61.7696 24.1536 59.731L20.7661 46.1913H23.7983H23.7984ZM5.19109 39.9673L9.64422 57.4083H9.67172L14.1522 39.9673H17.8128C18.6144 48.6168 19.0878 56.5308 19.2331 63.7043H16.1469C16.0383 56.9985 15.7375 50.6929 15.2456 44.7863H15.2188L10.5191 63.7043H8.16875L3.4975 44.7863H3.47C3.12344 50.4589 2.90531 56.7645 2.81438 63.7043H0C0.181875 55.2642 0.637031 47.3526 1.36547 39.9673H5.19125H5.19109Z" fill="#00758F"/>
<path d="M55.0779 39.6152C59.868 39.6152 62.2632 43.5436 62.2632 51.3966C62.2632 55.664 61.5429 58.8875 60.1036 61.0651C59.8443 61.463 59.5575 61.8068 59.2557 62.1253L62.6455 64.2769L62.6422 64.2766L61.4386 66.9447L57.0241 63.6382C56.2924 63.9164 55.4872 64.0554 54.6099 64.0554C52.2579 64.0554 50.501 63.1755 49.3394 61.4179C48.0644 59.4735 47.4272 56.4126 47.4272 52.2403C47.4272 47.9969 48.1463 44.7858 49.586 42.6053C50.8972 40.6108 52.7282 39.615 55.0779 39.615V39.6152ZM40.4091 39.6497C42.1211 39.6497 43.6779 40.2378 45.08 41.4097L44.3679 43.4469C43.168 42.7923 41.985 42.4635 40.8185 42.4635C39.8719 42.4635 39.1425 42.756 38.6341 43.3444C38.1229 43.9277 37.8066 44.6783 37.8066 45.5933C37.8066 46.9993 38.5869 48.2186 40.0277 49.2487C40.4997 49.5799 40.9701 49.9149 41.4388 50.2538L41.5463 50.3314L41.6002 50.3703L41.7079 50.4479L41.7616 50.4869L41.8691 50.5647C42.9597 51.3539 43.986 52.1073 43.986 52.1073C45.4266 53.42 46.1447 54.8196 46.1447 57.1248C46.1447 59.138 45.57 60.7905 44.4244 62.0836C43.278 63.3709 41.7379 64.0163 39.8091 64.0163C38.0052 64.0163 36.2569 63.2734 34.5635 61.8L35.3557 59.7609C36.813 60.6986 38.1318 61.167 39.316 61.167C40.4266 61.167 41.296 60.8487 41.9249 60.2201C42.5525 59.5868 42.9286 58.7037 42.9286 57.5839C42.9286 56.1745 42.1649 54.9697 40.7638 53.959C40.3252 53.6479 39.888 53.3339 39.4521 53.0169L39.3447 52.9389C39.1475 52.7958 38.9489 52.651 38.7544 52.5092L38.6489 52.4322C37.7029 51.7414 36.8849 51.1379 36.8849 51.1379C35.4843 49.8228 34.7819 48.4117 34.7819 46.0867C34.7819 44.1638 35.3057 42.6095 36.3516 41.4272C37.4 40.2422 38.7527 39.6497 40.4091 39.6497ZM67.8927 39.9674V60.7845H73.7111V63.7044H64.9418V39.9674H67.8927ZM76.9443 60.7935V61.2869H76.3046V63.7018H75.8155V61.2869H75.151V60.7935H76.9444H76.9443ZM78.1255 60.7935L78.7397 62.776L79.3039 60.7935H79.9972V63.7018H79.5363V61.4885L78.8941 63.7018H78.5618L77.9185 61.4885H77.8938V63.7018H77.4577V60.7935H78.1257H78.1255ZM54.7766 42.5343C51.9538 42.5343 50.5416 45.5249 50.5416 51.5019C50.5416 54.9257 50.9158 57.4084 51.6629 58.9559C52.3547 60.3879 53.4383 61.1026 54.9138 61.1026C57.7366 61.1026 59.1486 58.0888 59.1486 52.064C59.1486 48.6881 58.7744 46.2267 58.0283 44.6785C57.3357 43.2496 56.2525 42.5343 54.7768 42.5343H54.7766Z" fill="#F29111"/>
<path d="M47.378 1.47082C48.3144 -1.48282 51.5886 0.753968 52.8592 1.78572C53.1706 2.04385 53.5278 2.58921 53.8848 2.79079C54.4419 2.81887 54.9984 2.87483 55.5564 2.90471C56.603 3.22042 57.5833 3.47835 58.408 4.08127C62.2405 6.97855 64.7353 9.93099 67.0314 14.8077C67.522 15.8407 67.7672 16.9585 68.168 18.0763C68.7242 19.7424 69.3492 21.4914 69.9948 23.0669C70.2839 23.8139 70.5075 24.6444 70.9089 25.2752C71.0656 25.5637 71.5108 25.6487 71.7769 25.821C72.5125 26.3098 73.4037 26.6808 74.0956 27.2545C75.3876 28.2886 76.6369 29.521 77.7725 30.7826C78.1958 31.2696 78.4842 31.9589 78.8875 32.474V32.7339C78.5295 32.8749 78.1728 33.0194 77.8158 33.1351C77.0359 33.3922 76.3451 33.3341 75.5886 33.5914C75.1211 33.7655 74.5406 33.9951 74.0503 34.0535L74.0956 34.1121C74.3841 35.1701 75.9447 36.0306 76.6584 36.6634C77.5253 37.4665 78.3286 38.4404 78.9751 39.559C79.1984 39.8445 79.4217 40.1042 79.6439 40.3888C79.7992 40.6772 79.843 41.0503 80.0001 41.3074V41.3945C79.8261 41.3157 79.7009 41.1652 79.5823 41.008L79.5115 40.9131C79.4408 40.8188 79.3694 40.7262 79.288 40.6498C78.7961 40.2185 78.3076 39.7027 77.8158 39.3017C76.9701 38.6129 75.9894 38.2132 75.1211 37.5218C74.6301 37.1205 74.1622 36.6634 73.6942 36.2041C73.27 35.8015 72.8028 35.0285 72.5362 34.4549C72.3792 34.138 72.3576 33.7655 72.1783 33.5362C72.2103 33.1533 72.4836 33.0396 72.7594 32.9461L72.8228 32.9247C72.918 32.893 73.0111 32.8613 73.0923 32.8194C74.2508 32.188 75.6319 31.9589 77.4153 32.0163C77.3481 31.4414 76.2337 30.7252 75.878 30.381C75.1639 29.7203 74.4078 29.031 73.6503 28.4296C73.2489 28.1147 72.5572 27.8849 72.1125 27.6276C71.5108 27.3118 70.1734 26.9963 69.84 26.395C69.2736 25.4471 68.8667 24.3165 68.4717 23.1744L68.3642 22.8627C68.3284 22.7589 68.2924 22.655 68.2564 22.5512C67.7895 21.1759 67.2095 19.742 66.7415 18.3338C66.4969 17.6468 66.3845 17.0439 66.1165 16.385C64.4905 12.3419 62.0837 8.9568 59.1658 6.5762C58.2069 5.80159 57.1376 5.08474 55.9573 4.59755C55.2884 4.33821 54.4856 4.48162 53.773 4.28265H53.3039C52.9036 4.13784 52.5694 3.59308 52.257 3.30586C51.5672 2.70454 50.8762 2.30079 50.0512 1.87176C49.7622 1.69967 48.9367 1.29892 48.6486 1.61443C48.4701 1.67199 48.3797 1.75844 48.3358 1.98829C48.1583 2.33127 48.3144 2.84795 48.4248 3.16425C48.7595 4.08087 49.227 4.62563 49.6514 5.40024C50.0289 6.08721 50.4978 6.86182 50.7655 7.60875C51.343 9.21434 51.6119 10.9932 52.147 12.5986C52.3455 13.2023 52.6594 13.8893 52.9483 14.4339C53.1931 14.8661 53.6383 15.1786 53.773 15.7257C54.0414 16.2994 53.3711 18.1922 53.2159 18.7933C52.6355 21.1454 52.748 24.415 53.4164 26.4538L53.452 26.5613L53.4876 26.6702C53.7317 27.417 53.993 28.221 54.6419 28.4298C54.6866 28.3729 54.6419 28.4028 54.7305 28.3729C54.8875 26.7948 54.9317 25.275 55.3555 24.0403C55.6003 23.2683 56.0892 22.7225 56.4244 22.0923C56.6478 22.264 56.6478 22.7817 56.7809 23.1243C57.0709 24.0128 57.3823 24.987 57.7398 25.8782C58.4736 27.7134 59.2992 29.4927 60.2347 31.0981C60.548 31.6715 60.9925 32.3027 61.3934 32.8192C61.572 33.0192 61.772 33.1347 61.9062 33.392H61.95V33.4787C61.2816 33.1624 60.8578 32.2746 60.3247 31.7563C59.3209 30.7822 58.1189 29.3192 57.427 27.9154C57.1376 27.1095 56.8248 26.3371 56.513 25.5352V25.4772C56.3797 25.7063 56.4244 25.9337 56.3576 26.2803C56.0683 27.7134 56.2911 29.3483 55.2884 29.8637C54.1519 30.4675 53.3041 28.8896 52.9483 28.1725C51.8114 25.7925 51.5 21.7774 52.3017 18.5364C52.4798 17.8189 52.5041 16.9585 52.815 16.3856C52.7478 15.8678 52.4369 15.7261 52.257 15.4088C51.9451 14.8665 51.6781 14.2347 51.4339 13.6324C50.9648 12.4558 50.6311 11.05 50.275 9.78818C50.1184 9.27291 50.0736 8.75563 49.9175 8.26784C49.6512 7.52331 49.1605 6.77637 48.7819 6.11769C48.2692 5.17099 46.7761 3.33615 47.378 1.47082ZM54.6861 7.08987C54.7456 7.16649 54.8175 7.23348 54.8919 7.29947L54.9816 7.3785C55.1011 7.4848 55.2169 7.59672 55.2878 7.74915C55.4003 7.95093 55.4212 8.1501 55.5559 8.35228C55.5559 9.04165 55.4003 9.49996 55.0861 9.78557C55.0861 9.78557 55.0647 9.81566 55.0426 9.84374C54.8645 9.38423 54.7084 8.92712 54.529 8.46801C54.3081 8.06726 53.9958 7.74936 53.8158 7.29145H53.7725V7.23388C54.0414 7.14864 54.3081 7.08987 54.6861 7.08987Z" fill="#00758F"/>
</g>
<defs>
<clipPath id="clip0_42_390">
<rect width="80" height="70" fill="white"/>
</clipPath>
</defs>
</svg>
