<svg width="100" height="70" viewBox="0 0 100 70" fill="none" xmlns="http://www.w3.org/2000/svg">
<g clip-path="url(#clip0_42_387)">
<path d="M7.75175 7.16078C6.73613 3.96152 5.86132 0.712484 5.68281 0.0373724C5.67856 0.0255606 5.67345 0.0161588 5.6678 0.00973534C5.66214 0.00331184 5.65605 0 5.6499 0C5.64375 0 5.63766 0.00331184 5.632 0.00973534C5.62635 0.0161588 5.62124 0.0255606 5.61699 0.0373724C5.43828 0.712484 4.56367 3.96152 3.54804 7.16078C-5.16973 36.678 4.92109 56.5974 4.92109 56.5974L5.00566 56.7477C5.08086 59.8215 5.26894 64.2455 5.26894 64.2455H6.02129C6.02129 64.2455 6.20937 59.8464 6.28457 56.7477L6.36933 56.5725C6.37871 56.5974 16.4693 36.678 7.75175 7.16078ZM5.64511 56.1478C5.64511 56.1478 5.19375 55.1227 5.07148 54.5985V54.5482L5.61699 22.4068C5.61699 22.3067 5.67343 22.3067 5.67343 22.4068L6.21875 54.5482V54.5985C6.09648 55.1227 5.64511 56.1478 5.64511 56.1478Z" fill="#01EC64"/>
<path d="M24.5293 49.589L20.3242 22.3238L20.315 22.2486H17.0436V24.081H17.5713C17.7316 24.081 17.8824 24.2573 17.9957 24.558C18.1088 24.8593 18.1654 25.2612 18.1654 25.6884L18.0711 53.1284C18.0711 53.9824 17.8072 54.685 17.4865 54.7104L16.9492 54.7353V56.5429H20.1359V54.7353L19.8059 54.7104C19.4854 54.685 19.2213 53.9824 19.2213 53.1289V27.2689L23.8033 56.5423C23.8693 56.9691 24.0201 57.2455 24.19 57.2455C24.3596 57.2455 24.5104 56.9691 24.5764 56.5423L29.0549 27.9217L29.1209 53.1284C29.1209 54.0068 28.8568 54.7099 28.5268 54.7348H28.1873V56.5423H31.9209V54.7348H31.4117C31.0914 54.7348 30.8271 54.0068 30.818 53.1533L30.7895 25.7123C30.7893 25.2955 30.8502 24.8948 30.9593 24.5951C31.0684 24.2953 31.2171 24.1199 31.374 24.1059L31.9209 24.0805V22.248H28.7342L24.5291 49.5885L24.5293 49.589ZM53.8482 54.2577C53.7443 53.9814 53.6875 53.6044 53.6875 53.1512V39.6718C53.6875 37.1067 53.4041 35.0943 52.8369 33.6612C52.2791 32.2275 51.5041 31.4984 50.54 31.4984C49.1881 31.4984 48.1201 32.957 47.3732 35.8239C47.3639 35.8742 47.3355 35.8996 47.3072 35.8996C47.2787 35.8996 47.26 35.8488 47.26 35.7736L46.9102 32.1772H46.324L44.8211 34.4659V35.7233H45.2086C45.3883 35.7233 45.5395 35.8488 45.6436 36.1008C45.7475 36.3523 45.8041 36.7292 45.8041 37.2571V53.1263C45.8041 53.579 45.7475 53.9565 45.6436 54.2334C45.5395 54.5098 45.3977 54.6606 45.2275 54.6606H44.8494V56.4962H48.309V54.6606H47.9311C47.7607 54.6606 47.6189 54.5098 47.515 54.2334C47.4111 53.9565 47.3543 53.579 47.3543 53.1263V42.6139C47.3543 41.2813 47.4678 39.9482 47.6758 38.64C47.8932 37.3577 48.2145 36.276 48.6398 35.4459C49.0652 34.6163 49.5758 34.2139 50.1617 34.2139C50.8234 34.2139 51.3244 34.7672 51.6363 35.8737C51.9482 36.9802 52.109 38.4139 52.109 40.124V53.1009C52.109 53.5536 52.0523 53.9306 51.9482 54.2075C51.8443 54.4843 51.7025 54.6347 51.5322 54.6347H51.1543V56.4708H54.6139V54.6352H54.2359C54.0941 54.6855 53.9617 54.5346 53.8482 54.2577ZM85.4563 24.3014C84.5 22.9496 83.4313 22.248 82.2779 22.248H77.7779V24.0758H78.2184C78.3871 24.0758 78.5371 24.2511 78.6871 24.6514C78.8277 25.0273 78.9027 25.453 78.9027 25.9036V52.8406C78.9027 53.2917 78.8279 53.7169 78.6871 54.0929C78.5465 54.4683 78.3871 54.6684 78.2184 54.6684H77.7777V56.4962H82.2779C83.4313 56.4962 84.5 55.7952 85.4563 54.4429C86.4125 53.0911 87.1906 51.088 87.7531 48.5349C88.3158 45.9817 88.6064 42.9022 88.6064 39.397C88.6064 35.8923 88.3158 32.8378 87.7533 30.2597C87.1814 27.6562 86.4125 25.678 85.4564 24.3014H85.4563ZM86.7971 39.3472C86.7971 42.5517 86.5814 45.2552 86.1594 47.4335C85.7375 49.6113 85.175 51.2384 84.4813 52.2905C83.7875 53.3415 83.0186 53.8673 82.1936 53.8673H81.2842C81.1154 53.8673 80.9654 53.692 80.8154 53.2917C80.6748 52.9158 80.5998 52.4906 80.5998 52.04V26.6295C80.5998 26.1784 80.6654 25.7786 80.8154 25.3778C80.9561 25.0024 81.1154 24.8023 81.2842 24.8023H82.1936C83.0186 24.8023 83.7873 25.3275 84.4813 26.3791C85.175 27.4306 85.7375 29.0578 86.1594 31.236C86.5812 33.4387 86.7971 36.1677 86.7971 39.3472ZM99.2439 41.175C98.8277 39.8979 98.0244 38.8215 97.0799 38.2454C98.3842 36.5182 99.0545 34.09 99.0545 30.9602C99.0545 29.2584 98.8852 27.7309 98.5443 26.4294C98.2045 25.1279 97.7221 24.0758 97.1082 23.3499C96.4934 22.624 95.775 22.2486 94.9623 22.2486H89.8684V24.0758H90.2746C90.4447 24.0758 90.5961 24.2511 90.7473 24.6514C90.8891 25.0273 90.9647 25.453 90.9647 25.9036V52.8406C90.9647 53.2917 90.8891 53.7169 90.7473 54.0929C90.6055 54.4683 90.4447 54.6684 90.2746 54.6684H89.8305V56.4962H95.3598C96.2006 56.4962 96.9848 56.1208 97.6939 55.3694C98.4029 54.6186 98.9699 53.5168 99.3766 52.0649C99.792 50.6131 100 48.8351 100 46.7823C99.9906 44.5796 99.7447 42.7015 99.2439 41.175ZM92.9021 53.3166C92.7604 52.9412 92.6848 52.5155 92.6848 52.0649V39.9726H95.3125C96.2381 39.9726 96.9471 40.5984 97.4387 41.8496C97.9301 43.1018 98.176 44.7289 98.176 46.732C98.176 47.9334 98.0619 49.1104 97.8549 50.1869C97.6373 51.2882 97.3152 52.1645 96.8813 52.8406C96.4555 53.5163 95.9264 53.8673 95.3125 53.8673H93.3744C93.2045 53.8673 93.0531 53.6915 92.902 53.3161L92.9021 53.3166ZM92.6943 37.3945V26.6544C92.6943 26.2038 92.7604 25.8035 92.9115 25.4027C93.0533 25.0273 93.2141 24.8272 93.3842 24.8272H94.6318C95.5291 24.8272 96.1912 25.4281 96.6074 26.5798C97.0227 27.7563 97.2307 29.2584 97.2307 31.1106C97.2307 33.0135 97.032 34.5406 96.6449 35.6922C96.257 36.8184 95.6713 37.3945 94.8965 37.3945H92.6943ZM40.6777 33.0944C39.9555 32.047 39.1488 31.4974 38.2766 31.4974C37.4273 31.4974 36.6314 31.9946 35.932 33.0115L35.8756 33.0944C35.1533 34.1423 34.5813 35.6642 34.1592 37.5853C33.7373 39.5064 33.5215 41.7521 33.5215 44.2467C33.5215 46.7418 33.7371 48.9875 34.1592 50.9086C34.5813 52.8297 35.1533 54.3516 35.8756 55.399C36.5979 56.4469 37.4045 56.996 38.2766 56.996C39.126 56.996 39.9219 56.4993 40.6211 55.483L40.6777 55.3995C41.3998 54.3516 41.9721 52.8297 42.3941 50.9086C42.816 48.9875 43.0318 46.7418 43.0318 44.2467C43.0318 41.7521 42.816 39.5064 42.3941 37.5853C41.9721 35.6642 41.4 34.1423 40.6777 33.0949V33.0944ZM41.3717 44.2467C41.3717 47.3158 41.0904 49.8104 40.5275 51.6071C39.9742 53.4032 39.2146 54.3262 38.2766 54.3262C37.3555 54.3262 36.6063 53.4359 36.0555 51.7025L36.0258 51.6071C35.4629 49.8104 35.1814 47.3158 35.1814 44.2467C35.1814 41.2341 35.4529 38.7743 35.9953 36.9854L36.0258 36.8869C36.5789 35.0907 37.3389 34.1672 38.2766 34.1672C39.2146 34.1672 39.9742 35.0902 40.5275 36.8869C41.0904 38.6835 41.3717 41.1781 41.3717 44.2467ZM73.9168 33.0944C73.1945 32.047 72.3881 31.4974 71.5158 31.4974C70.6666 31.4974 69.8705 31.9946 69.1713 33.0115L69.1147 33.0944C68.3926 34.1423 67.8205 35.6642 67.3984 37.5853C66.9764 39.5064 66.7605 41.7521 66.7605 44.2467C66.7605 46.7418 66.9764 48.9875 67.3984 50.9086C67.8203 52.8297 68.3926 54.3516 69.1148 55.399C69.8369 56.4469 70.6436 56.996 71.5158 56.996C72.365 56.996 73.1611 56.4993 73.8604 55.483L73.917 55.3995C74.6391 54.3516 75.2111 52.8297 75.6332 50.9086C76.0553 48.9875 76.2709 46.7418 76.2709 44.2467C76.2709 41.7521 76.0553 39.5064 75.6332 37.5853C75.2113 35.6642 74.6297 34.1423 73.9168 33.0949V33.0944ZM74.6109 44.2467C74.6109 47.3158 74.3295 49.8104 73.7668 51.6071C73.2133 53.4032 72.4537 54.3262 71.5158 54.3262C70.5945 54.3262 69.8453 53.4359 69.2947 51.7025L69.2648 51.6071C68.7021 49.8104 68.4207 47.3158 68.4207 44.2467C68.4207 41.2092 68.692 38.7732 69.2344 36.9854L69.2648 36.8869C69.8182 35.0907 70.5779 34.1672 71.5158 34.1672C72.4537 34.1672 73.2133 35.0902 73.7668 36.8869C74.3201 38.6835 74.6109 41.1781 74.6109 44.2467ZM60.5121 31.4979C59.7562 31.4979 59.0668 31.9236 58.4434 32.776C57.8199 33.628 57.3287 34.7812 56.9793 36.26C56.6317 37.6949 56.448 39.3663 56.4504 41.0723C56.4504 42.6263 56.5826 44.0549 56.8566 45.3335C57.1209 46.5614 57.4799 47.5891 57.9334 48.441L56.5826 53.3037C56.4127 53.9052 56.3938 54.7073 56.5164 55.3591C56.6486 56.0357 56.8943 56.4366 57.1777 56.4366H57.565C57.2029 57.0852 56.9102 57.849 56.7035 58.7492L56.677 58.8679C56.4314 59.9454 56.3086 61.0737 56.3086 62.2263C56.3086 64.3435 56.6549 66.0981 57.3383 67.4183L57.376 67.4898C58.0752 68.8183 59.0574 69.4949 60.2947 69.4949C61.1543 69.4949 61.9762 69.119 62.7225 68.392C63.4564 67.6863 64.0566 66.6488 64.5061 65.3037L64.5451 65.1845C65.008 63.7803 65.2443 62.076 65.2443 60.1212C65.2443 58.0658 64.9609 56.6118 64.2998 55.2087C63.733 54.0306 62.8451 53.4043 61.7398 53.4043H57.9617C57.9562 53.403 57.9509 53.3972 57.9467 53.3877L57.9428 53.3789L57.941 53.3685C57.9391 53.3524 57.9359 53.3218 57.9428 53.3037L58.9252 49.7949C59.1578 50.0826 59.4018 50.301 59.6525 50.4461C59.8791 50.5716 60.1342 50.6219 60.4176 50.6219C61.2109 50.6219 61.9289 50.1957 62.5523 49.3438C63.1758 48.4913 63.6764 47.3386 64.0354 45.8593C64.3941 44.4059 64.5736 42.7767 64.5736 41.0475C64.5736 39.1927 64.2338 35.8089 63.308 34.0796C63.308 34.064 63.3113 34.0583 63.3141 34.0557L63.3174 34.0542L65.3482 34.6557V32.1746H62.0988C61.5889 31.7483 61.0598 31.4979 60.5121 31.4979ZM61.6455 47.1883C61.2865 47.6892 60.8994 47.965 60.5121 47.965C59.8793 47.965 59.3219 47.3635 58.8496 46.1855C58.3773 45.0074 58.1412 43.2781 58.1412 41.0723C58.1412 38.8666 58.3773 37.1368 58.8496 35.9592C59.3219 34.7812 59.8791 34.1797 60.5121 34.1797C60.8922 34.1797 61.2551 34.4099 61.6006 34.8921L61.6455 34.9564C62.0045 35.4578 62.2973 36.2351 62.5334 37.2628C62.76 38.2905 62.883 39.5686 62.883 41.0723C62.883 42.6015 62.7695 43.8796 62.5334 44.8819C62.3068 45.9096 62.0045 46.6863 61.6455 47.1877V47.1883ZM59.0857 56.4117H61.6455C62.3539 56.4117 62.8074 56.7876 63.1096 57.5897C63.4119 58.3919 63.5629 59.4694 63.5629 60.7226C63.5629 62.5525 63.2891 64.0567 62.7412 65.184C62.1934 66.3123 61.4566 66.8883 60.5498 66.8883C59.7563 66.8883 59.0951 66.4123 58.6133 65.5101C58.1316 64.6079 57.8861 63.2286 57.8861 61.4745C57.8861 60.3716 57.9994 59.3439 58.2262 58.4417C58.4527 57.5395 58.7268 56.8877 59.0855 56.4117H59.0857Z" fill="#001E2B"/>
</g>
<defs>
<clipPath id="clip0_42_387">
<rect width="100" height="70" fill="white"/>
</clipPath>
</defs>
</svg>
