<svg width="49" height="44" viewBox="0 0 49 44" fill="none" xmlns="http://www.w3.org/2000/svg">
<path d="M15.255 28.9919C12.1963 30.8103 7.89352 29.1431 4.91523 33.2578C4.43289 33.9247 4.00031 35.0935 3.44523 36.7985C3.00883 38.1322 0.666016 39.0706 0.666016 39.0706C0.666016 39.0706 2.68344 40.9888 4.58602 41.3566C7.33844 41.8928 11.2929 42.161 13.9726 39.5381C17.0274 36.5475 15.6608 33.7872 18.352 32.1269C18.3481 32.1269 18.3137 27.17 15.255 28.9919Z" fill="#F09300"/>
<path d="M12.9846 29.8444C12.6784 30.085 12.598 30.4837 12.6094 30.8481C12.6592 32.2334 13.8919 33.5122 15.4116 33.7494C16.028 33.8456 16.7476 33.7528 17.1266 33.3059C17.5516 32.8075 17.3908 32.0856 17.0922 31.5184C16.763 30.8962 16.2921 30.3359 15.7102 29.889" fill="#C67100"/>
<path d="M46.818 2.23777C46.818 2.23777 46.06 1.32339 44.1192 2.34433C41.4816 3.72964 32.9449 9.43589 22.7047 18.9096C20.4001 21.0409 19.4929 22.2681 19.4929 22.2681C19.4929 22.2681 18.9225 23.0518 21.1083 25.0146C23.2904 26.974 25.3154 27.3728 25.3154 27.3728L27.0457 25.7743C39.3953 14.355 45.6122 7.03308 46.7874 4.66808C47.6985 2.82214 46.818 2.23777 46.818 2.23777Z" fill="#1565C0"/>
<path d="M22.2341 24.9769C20.0482 23.0691 19.7152 22.0653 19.7152 22.0653C19.7152 22.0653 19.0606 22.4469 18.6663 22.9006C18.0691 23.5881 18.004 24.0831 18.004 24.0831L13.104 29.5934C13.104 29.5934 12.48 30.6384 14.3481 32.2644C16.2124 33.8903 17.3609 33.3025 17.3609 33.3025L23.3519 28.7478C23.3519 28.7478 23.8993 28.6756 24.6496 28.1187C25.1434 27.7509 25.5492 27.1528 25.5492 27.1528C25.5492 27.1528 24.4199 26.8812 22.2341 24.9769Z" fill="#BDBDBD"/>
<path d="M21.1042 25.0112C21.0965 25.0181 21.0927 25.025 21.0851 25.0319C20.9511 25.1694 20.7176 25.1728 20.5147 25.1384C19.7797 25.0112 19.2705 24.5712 19.0064 23.9662C18.8839 23.6809 18.8609 23.3509 19.0102 23.0759C19.282 22.5809 19.6801 22.9144 19.9864 23.1894C20.374 23.5397 20.7144 23.9297 21.0008 24.3512C21.0697 24.4544 21.1387 24.5644 21.1654 24.6847C21.1922 24.7981 21.1808 24.9219 21.1042 25.0112Z" fill="#EEEEEE"/>
<path d="M23.5775 20.4738C24.2665 21.8522 30.0853 16.4244 31.5591 15.0151C32.2941 14.3138 37.374 10.2094 36.2256 10.0376C35.0771 9.86568 32.4625 11.8869 31.5974 12.5057C29.8671 13.7397 27.6506 15.6888 25.9394 17.2907C25.101 18.071 23.3171 19.9547 23.5775 20.4738Z" fill="#2196F3"/>
<path d="M16.74 26.4482C16.8969 26.3004 17.0845 26.1388 17.3295 26.1388C17.5592 26.1388 17.7506 26.2832 17.9075 26.4207C18.4243 26.8744 18.9028 27.5035 18.6234 28.0707C18.5086 28.301 18.2865 28.4797 18.0683 28.6516L15.5111 30.6797C14.9982 31.0854 14.512 30.556 14.3206 30.1504C14.1483 29.7791 14.2785 29.4835 14.5005 29.1569C15.1398 28.1979 15.8748 27.2766 16.74 26.4482Z" fill="#EEEEEE"/>
<path d="M22.7697 28.4007C22.8578 28.4557 22.9535 28.5313 22.942 28.6241C22.9351 28.6595 22.9179 28.6927 22.8922 28.7204C22.6894 28.9713 22.2797 29.0229 21.9505 28.9232C21.6251 28.8235 21.361 28.6069 21.1083 28.3972C20.1475 27.586 19.1981 26.7438 18.509 25.7332C18.4019 25.5785 17.8468 24.6813 18.2296 24.5954C18.4746 24.5404 19.0258 25.3379 19.1828 25.5029C19.8655 26.2042 20.6065 26.858 21.3993 27.4588C21.8433 27.7888 22.2989 28.1051 22.7697 28.4007Z" fill="#9E9E9E"/>
<path d="M13.9687 39.5381C13.9687 39.5381 10.2975 41.3875 6.39281 40.865C6.39281 40.865 9.48211 40.3597 10.7913 36.6025C10.7913 36.6025 7.81687 39.3835 5.12953 39.5725C5.12953 39.5725 7.69438 38.3728 7.85898 34.736C6.48852 36.9291 5.58891 38.0256 3.40687 38.6891C5.75352 36.4238 4.89984 33.275 4.89984 33.275C4.42133 33.9453 3.99258 35.1038 3.44133 36.795C3.00492 38.1288 0.662109 39.0672 0.662109 39.0672C0.662109 39.0672 2.67953 40.9853 4.58211 41.3531C7.33453 41.8928 11.2928 42.1575 13.9687 39.5381Z" fill="#FF4412"/>
</svg>
