<svg width="51" height="45" viewBox="0 0 51 45" fill="none" xmlns="http://www.w3.org/2000/svg">
<path d="M25.5 5.625C37.8229 5.625 47.8125 12.495 47.8125 20.9719C47.8125 29.4469 37.8229 36.3169 25.5 36.3169C24.273 36.3174 23.0472 36.2486 21.8301 36.1106L12.4631 41.5162C11.3985 42.0131 11.0224 41.9587 11.4601 40.7419L13.3556 33.8456C7.23562 31.1081 3.1875 26.3644 3.1875 20.9719C3.1875 12.4969 13.1771 5.625 25.5 5.625ZM38.0524 20.7375L41.1761 18.0675C41.3564 17.9023 41.4569 17.6819 41.4566 17.4526C41.4563 17.2233 41.3551 17.0031 41.1744 16.8383C40.9937 16.6735 40.7476 16.577 40.4879 16.5692C40.2282 16.5613 39.9752 16.6427 39.7821 16.7962L35.6851 20.295V17.4037C35.6851 17.169 35.5795 16.9439 35.3914 16.778C35.2033 16.612 34.9481 16.5188 34.6821 16.5188C34.4161 16.5188 34.161 16.612 33.9729 16.778C33.7848 16.9439 33.6791 17.169 33.6791 17.4037V22.1981C33.6415 22.3349 33.6415 22.4776 33.6791 22.6144V25.3125C33.6791 25.5472 33.7848 25.7723 33.9729 25.9383C34.161 26.1043 34.4161 26.1975 34.6821 26.1975C34.9481 26.1975 35.2033 26.1043 35.3914 25.9383C35.5795 25.7723 35.6851 25.5472 35.6851 25.3125V22.7569L36.5925 21.9825L39.627 25.7944C39.7028 25.8895 39.799 25.9706 39.9103 26.0329C40.0216 26.0953 40.1457 26.1377 40.2755 26.1577C40.4054 26.1777 40.5384 26.175 40.667 26.1496C40.7957 26.1243 40.9174 26.0768 41.0252 26.01C41.1331 25.9431 41.225 25.8582 41.2956 25.76C41.3663 25.6618 41.4143 25.5523 41.437 25.4378C41.4597 25.3232 41.4566 25.2058 41.4279 25.0923C41.3992 24.9788 41.3454 24.8714 41.2696 24.7762L38.0524 20.7356V20.7375ZM31.7666 24.345H28.6641V17.4319C28.6523 17.2044 28.5415 16.9898 28.3549 16.8326C28.1683 16.6753 27.9202 16.5876 27.6622 16.5876C27.4042 16.5876 27.1561 16.6753 26.9695 16.8326C26.7829 16.9898 26.6721 17.2044 26.6602 17.4319V25.23C26.6602 25.7175 27.1065 26.115 27.6611 26.115H31.7666C32.0326 26.115 32.2878 26.0218 32.4759 25.8558C32.664 25.6898 32.7696 25.4647 32.7696 25.23C32.7696 24.9953 32.664 24.7702 32.4759 24.6042C32.2878 24.4382 32.0326 24.345 31.7666 24.345V24.345ZM19.3205 22.2975L20.7995 19.0969L22.1552 22.2975H19.3205V22.2975ZM24.6819 23.2125L24.6861 23.1825C24.6856 22.9595 24.5892 22.7451 24.4162 22.5825L22.1935 17.3325C22.1003 17.0823 21.9228 16.8632 21.6848 16.7044C21.4467 16.5456 21.1593 16.4546 20.8611 16.4438C20.5607 16.4426 20.2671 16.5222 20.0192 16.6719C19.7713 16.8216 19.581 17.0344 19.4735 17.2819L15.9439 24.9225C15.8941 25.0301 15.8688 25.1453 15.8694 25.2615C15.8701 25.3778 15.8966 25.4927 15.9476 25.5999C15.9987 25.7071 16.0731 25.8043 16.1667 25.8861C16.2603 25.9679 16.3712 26.0326 16.4932 26.0766C16.6151 26.1205 16.7457 26.1428 16.8774 26.1423C17.0092 26.1417 17.1395 26.1182 17.2609 26.0732C17.3824 26.0282 17.4926 25.9625 17.5853 25.88C17.678 25.7974 17.7513 25.6995 17.8011 25.5919L18.5024 24.0675H22.9011L23.5365 25.5675C23.5797 25.6796 23.648 25.783 23.7372 25.8714C23.8265 25.9598 23.935 26.0315 24.0563 26.0823C24.1775 26.133 24.3091 26.1618 24.4432 26.1668C24.5773 26.1719 24.7112 26.1532 24.8369 26.1118C24.9626 26.0704 25.0777 26.0071 25.1752 25.9257C25.2727 25.8444 25.3508 25.7466 25.4047 25.6381C25.4586 25.5297 25.4873 25.4128 25.489 25.2944C25.4908 25.1759 25.4656 25.0584 25.415 24.9487L24.6819 23.2125V23.2125ZM17.6226 17.4412C17.6226 17.2069 17.5172 16.982 17.3296 16.8161C17.142 16.6502 16.8874 16.5567 16.6218 16.5562H9.72613C9.46011 16.5562 9.205 16.6495 9.0169 16.8155C8.8288 16.9814 8.72313 17.2065 8.72313 17.4412C8.72313 17.676 8.8288 17.9011 9.0169 18.067C9.205 18.233 9.46011 18.3262 9.72613 18.3262H12.1911V25.3312C12.1911 25.566 12.2968 25.7911 12.4849 25.957C12.673 26.123 12.9281 26.2162 13.1941 26.2162C13.4601 26.2162 13.7153 26.123 13.9034 25.957C14.0915 25.7911 14.1971 25.566 14.1971 25.3312V18.3262H16.6196C16.8856 18.3262 17.1408 18.233 17.3289 18.067C17.517 17.9011 17.6226 17.676 17.6226 17.4412V17.4412Z" fill="#FF4412"/>
</svg>
