<svg width="80" height="70" viewBox="0 0 80 70" fill="none" xmlns="http://www.w3.org/2000/svg">
<path d="M67.7225 34.532C67.7225 33.0201 67.0361 31.5701 65.8143 30.501C64.5925 29.432 62.9354 28.8314 61.2076 28.8314C60.9788 28.8311 60.7501 28.8414 60.5225 28.862L69.4725 5.76636H31.44L40.3775 28.8423C40.2475 28.8423 40.115 28.8314 39.9825 28.8314C38.4268 28.8298 36.9217 29.3154 35.7396 30.2005C34.5574 31.0855 33.7763 32.3114 33.5374 33.6566C33.2985 35.0018 33.6176 36.3773 34.437 37.5345C35.2564 38.6917 36.5221 39.5541 38.005 39.9657C36.6192 42.0536 34.8936 43.954 32.8825 45.6073C30.2647 47.797 27.1546 49.4859 23.75 50.5664C21.8426 49.7754 20.3507 48.3787 19.5776 46.66C18.8045 44.9414 18.808 43.0297 19.5875 41.3132C19.78 40.9195 19.975 40.5214 20.16 40.1232C21.6127 39.8239 22.9039 39.0974 23.818 38.0652C24.732 37.033 25.2135 35.7575 25.1821 34.452C25.1506 33.1465 24.608 31.8899 23.645 30.8923C22.682 29.8948 21.3569 29.2166 19.8911 28.9711C18.4254 28.7257 16.9077 28.9278 15.5918 29.5437C14.2759 30.1597 13.2414 31.1521 12.6612 32.3552C12.081 33.5583 11.9903 34.8992 12.4041 36.1538C12.818 37.4084 13.7114 38.5007 14.935 39.2482C12.8554 42.5476 11.2683 46.0669 10.2125 49.7198C9.32755 54.3901 10.2125 59.3448 14.825 62.147C25.575 68.6679 37.2475 58.1045 49.5525 55.451C54.0125 54.4885 58.9076 54.6439 62.8351 52.6532C64.254 51.9461 65.4776 50.9743 66.4191 49.8069C67.3605 48.6395 67.9968 47.305 68.2825 45.8982C68.5439 44.5578 68.4946 43.185 68.1378 41.8615C67.7809 40.538 67.1236 39.2907 66.205 38.1939C67.1851 37.169 67.7215 35.8749 67.72 34.5385L67.7225 34.532ZM46.5 34.5626V34.5429C46.5019 33.5619 46.2137 32.5971 45.6635 31.7424C45.1133 30.8876 44.3198 30.1719 43.36 29.6648L50.47 17.0626L57.595 29.7807C56.7012 30.3005 55.9683 31.0058 55.4619 31.8337C54.9554 32.6616 54.6911 33.5864 54.6926 34.5254V34.6501L46.5 34.5626Z" fill="#C63D14"/>
<path d="M69.3145 34.5319C69.312 32.879 68.6507 31.2786 67.4446 30.0064C66.2385 28.7342 64.5631 27.87 62.707 27.5625L71.692 4.375H29.222L38.222 27.6084C36.6508 27.9157 35.2199 28.6256 34.1117 29.6476C33.0036 30.6695 32.2685 31.9571 32.0002 33.3462C31.732 34.7352 31.9427 36.1627 32.6056 37.4464C33.2685 38.7302 34.3534 39.8121 35.722 40.5541C34.5914 42.0237 33.2766 43.3782 31.802 44.5922C29.5195 46.5031 26.8371 48.0108 23.902 49.0328C22.5246 48.3332 21.4804 47.2236 20.96 45.9065C20.4396 44.5894 20.4776 43.1525 21.067 41.8578L21.167 41.6544L21.352 41.2716C23.0182 40.7661 24.4508 39.7993 25.4329 38.5176C26.4149 37.236 26.8929 35.7092 26.7944 34.1685C26.696 32.6278 26.0265 31.1572 24.8873 29.9793C23.7481 28.8014 22.2012 27.9804 20.481 27.6406C18.7608 27.3008 16.9609 27.4607 15.3538 28.0962C13.7468 28.7316 12.4202 29.8079 11.5748 31.1622C10.7295 32.5164 10.4115 34.0748 10.6691 35.6013C10.9266 37.1279 11.7456 38.5394 13.002 39.6222C12.732 40.1275 12.447 40.6394 12.1545 41.1666C10.5336 43.7743 9.3546 46.5745 8.65452 49.4791C7.49202 55.6041 9.36702 60.5106 13.932 63.2778C16.3826 64.8112 19.3218 65.6322 22.3345 65.625C27.6645 65.625 33.057 63.2822 38.3345 60.9897C42.0219 59.235 45.9121 57.8285 49.9395 56.7941C51.382 56.4834 52.867 56.2953 54.4395 56.0963C57.6431 55.8723 60.7671 55.1087 63.6395 53.8475C65.2594 53.0379 66.656 51.9265 67.7305 50.5921C68.8049 49.2576 69.5309 47.7328 69.857 46.1256C70.3882 43.3951 69.7747 40.5885 68.1295 38.2222C68.9078 37.111 69.3188 35.8329 69.317 34.5297L69.3145 34.5319ZM66.132 34.5319C66.132 35.3842 65.8432 36.2174 65.302 36.926C64.7608 37.6347 63.9917 38.1871 63.0917 38.5132C62.1918 38.8394 61.2016 38.9247 60.2462 38.7584C59.2908 38.5922 58.4133 38.1817 57.7245 37.5791C57.0357 36.9764 56.5667 36.2085 56.3766 35.3726C56.1866 34.5367 56.2841 33.6702 56.6569 32.8828C57.0297 32.0953 57.6609 31.4223 58.4708 30.9488C59.2807 30.4752 60.2329 30.2225 61.207 30.2225C62.5128 30.2237 63.7647 30.6781 64.6881 31.486C65.6114 32.2939 66.1307 33.3893 66.132 34.5319ZM67.2495 7.15969L59.3145 27.6347C58.9747 27.7066 58.6407 27.798 58.3145 27.9081L50.477 13.9081L42.6145 27.825C42.2722 27.7212 41.9222 27.6379 41.567 27.5756L33.6595 7.15969H67.2495ZM39.982 30.2225C40.9561 30.2225 41.9083 30.4752 42.7182 30.9488C43.5281 31.4223 44.1594 32.0953 44.5321 32.8828C44.9049 33.6702 45.0024 34.5367 44.8124 35.3726C44.6223 36.2085 44.1533 36.9764 43.4645 37.5791C42.7757 38.1817 41.8982 38.5922 40.9428 38.7584C39.9875 38.9247 38.9972 38.8394 38.0973 38.5132C37.1974 38.1871 36.4282 37.6347 35.887 36.926C35.3459 36.2174 35.057 35.3842 35.057 34.5319C35.0583 33.3893 35.5776 32.2939 36.501 31.486C37.4243 30.6781 38.6762 30.2237 39.982 30.2225ZM18.677 30.2641C19.6515 30.2645 20.604 30.5179 21.4138 30.9922C22.2237 31.4664 22.8545 32.1403 23.2265 32.9284C23.5985 33.7165 23.695 34.5834 23.5036 35.4195C23.3123 36.2556 22.8418 37.0233 22.1517 37.6253C21.4616 38.2273 20.5828 38.6366 19.6267 38.8015C18.6706 38.9664 17.6801 38.8793 16.7805 38.5514C15.881 38.2235 15.1128 37.6695 14.5733 36.9594C14.0337 36.2493 13.747 35.4152 13.7495 34.5625C13.7508 33.4199 14.2701 32.3245 15.1935 31.5166C16.1168 30.7087 17.3687 30.2543 18.6745 30.2531L18.677 30.2641ZM66.7195 45.6509C66.4724 46.8568 65.9253 48.0003 65.117 49.0005C64.3087 50.0008 63.2589 50.8333 62.042 51.4391C59.5172 52.5117 56.7833 53.1567 53.9845 53.34C52.4045 53.5391 50.772 53.7447 49.1745 54.0903C44.9219 55.1678 40.8147 56.6442 36.9245 58.4938C29.0145 61.9303 22.1745 64.8988 15.7445 60.9941C11.027 58.1328 11.2445 52.8391 11.7945 49.9384C12.4418 47.2988 13.5212 44.7547 14.9995 42.385L15.6745 41.1622C16.346 41.3971 17.0507 41.5516 17.7695 41.6216C17.1332 43.5881 17.311 45.688 18.2715 47.551C19.232 49.414 20.9136 50.9203 23.0195 51.8044L23.632 52.08L24.2795 51.8788C27.8912 50.7381 31.1909 48.9499 33.967 46.6288C35.8008 45.1193 37.4116 43.4152 38.762 41.5559C40.4898 41.7859 42.2563 41.5209 43.7978 40.8004C45.3394 40.0799 46.5734 38.9426 47.3157 37.5582C48.058 36.1737 48.2689 34.6164 47.9168 33.1185C47.5647 31.6207 46.6685 30.2626 45.362 29.2469L50.457 20.2322L55.6045 29.4197C54.1399 30.6547 53.26 32.3267 53.1396 34.1034C53.0191 35.88 53.667 37.6313 54.9545 39.0091C56.242 40.387 58.0748 41.2906 60.0887 41.5404C62.1026 41.7901 64.1502 41.3677 65.8245 40.3572C66.7529 41.9968 67.0636 43.8516 66.712 45.6553L66.7195 45.6509Z" fill="white"/>
</svg>
